#Comment line ignore any data following # character 
#Hierarchical Translation and Rotation (.htr) file 
[Header]	
#Header keywords are followed by a single value 
FileType HTR		#Single word string
DataType HTRS		#Translation followed by rotation and scale data
FileVersion 1		#integer
NumSegments 25		#integer
NumFrames 4		#integer
DataFrameRate 30		#integer, data frame rate in this file
EulerRotationOrder ZYX
CalibrationUnits mm
RotationUnits Degrees
GlobalAxisofGravity Y
BoneLengthAxis Y
ScaleFactor 1.00
[SegmentNames&Hierarchy]
#CHILD	PARENT
BN_Tick_Root GLOBAL
BN_Torso BN_Tick_Root
BN_L_Leg_Front01 BN_Torso
BN_L_Leg_Rear01 BN_Torso
BN_MetalTop BN_Torso
BN_Neck BN_Torso
BN_R_Leg_Front01 BN_Torso
BN_R_Leg_Rear01 BN_Torso
BN_Sack BN_Torso
BN_L_Leg_Front02 BN_L_Leg_Front01
BN_L_Leg_Front03 BN_L_Leg_Front02
BN_L_Leg_Rear02 BN_L_Leg_Rear01
BN_L_Leg_Rear03 BN_L_Leg_Rear02
BN_Head BN_Neck
BN_Needle BN_Head
BN_R_Leg_Front02 BN_R_Leg_Front01
BN_R_Leg_Front03 BN_R_Leg_Front02
BN_R_Leg_Rear02 BN_R_Leg_Rear01
BN_R_Leg_Rear03 BN_R_Leg_Rear02
BN_SackDef01 BN_Sack
BN_SackDef02 BN_Sack
BN_SackDef03 BN_Sack
BN_SackDef04 BN_Sack
BN_SackDef05 BN_Sack
BN_SackDef06 BN_Sack
[BasePosition]
#SegmentName Tx, Ty, Tz, Rx, Ry, Rz, BoneLength
BN_Tick_Root 0.000000 0.000000 0.000000 -90.000000 0.000000 0.000000 10.000000 
BN_Torso 0.000000 0.000000 0.000000 0.000000 0.000000 0.000000 10.000000 
BN_L_Leg_Front01 0.000000 0.000000 0.000000 0.000000 0.000000 0.000000 10.000000 
BN_L_Leg_Rear01 0.000000 0.000000 0.000000 0.000000 0.000000 0.000000 10.000000 
BN_MetalTop 0.000000 0.000000 0.000000 0.000000 0.000000 0.000000 10.000000 
BN_Neck 0.000000 0.000000 0.000000 0.000000 0.000000 0.000000 10.000000 
BN_R_Leg_Front01 0.000000 0.000000 0.000000 0.000000 0.000000 0.000000 10.000000 
BN_R_Leg_Rear01 0.000000 0.000000 0.000000 0.000000 0.000000 0.000000 10.000000 
BN_Sack 0.000000 0.000000 0.000000 0.000000 0.000000 0.000000 10.000000 
BN_L_Leg_Front02 0.000000 0.000000 0.000000 0.000000 0.000000 0.000000 10.000000 
BN_L_Leg_Front03 0.000000 0.000000 0.000000 0.000000 0.000000 0.000000 10.000000 
BN_L_Leg_Rear02 0.000000 0.000000 0.000000 0.000000 0.000000 0.000000 10.000000 
BN_L_Leg_Rear03 0.000000 0.000000 0.000000 0.000000 0.000000 0.000000 10.000000 
BN_Head 0.000000 0.000000 0.000000 0.000000 0.000000 0.000000 10.000000 
BN_Needle 0.000000 0.000000 0.000000 0.000000 0.000000 0.000000 10.000000 
BN_R_Leg_Front02 0.000000 0.000000 0.000000 0.000000 0.000000 0.000000 10.000000 
BN_R_Leg_Front03 0.000000 0.000000 0.000000 0.000000 0.000000 0.000000 10.000000 
BN_R_Leg_Rear02 0.000000 0.000000 0.000000 0.000000 0.000000 0.000000 10.000000 
BN_R_Leg_Rear03 0.000000 0.000000 0.000000 0.000000 0.000000 0.000000 10.000000 
BN_SackDef01 0.000000 0.000000 0.000000 0.000000 0.000000 0.000000 10.000000 
BN_SackDef02 0.000000 0.000000 0.000000 0.000000 0.000000 0.000000 10.000000 
BN_SackDef03 0.000000 0.000000 0.000000 0.000000 0.000000 0.000000 10.000000 
BN_SackDef04 0.000000 0.000000 0.000000 0.000000 0.000000 0.000000 10.000000 
BN_SackDef05 0.000000 0.000000 0.000000 0.000000 0.000000 0.000000 10.000000 
BN_SackDef06 0.000000 0.000000 0.000000 0.000000 0.000000 0.000000 10.000000 
#Beginning of Data. Separated by tabs
#Fr	Tx	Ty	Tz	Rx	Ry	Rz	SF
[BN_Tick_Root]
470 0.000000 0.000000 0.000000 0.000000 0.000000 -0.000020 0.000000
471 0.000000 0.000000 0.000000 0.000000 0.000000 -0.000020 0.000000
472 0.000000 0.000000 0.000000 0.000000 0.000000 -0.000020 0.000000
473 0.000000 0.000000 0.000000 0.000000 0.000000 -0.000020 0.000000
[BN_Torso]
470 1588.637329 -1022.326599 208.293167 -15.207164 -1.340137 135.698730 1900.606812
471 1588.637329 -1022.326599 203.506546 -11.502940 -1.289879 135.770813 1900.088257
472 1588.637329 -1022.326599 205.654816 -12.191772 -1.495430 135.817902 1900.319458
473 1588.637451 -1022.326477 207.803162 -12.880863 -1.700407 135.867432 1900.553101
[BN_L_Leg_Front01]
470 -68.477791 10.734189 -26.804373 -120.497765 63.067318 125.286324 74.316254
471 -68.477791 10.734189 -26.804373 -120.497765 63.067318 125.286324 74.316254
472 -68.477791 10.734189 -26.804373 -120.497765 63.067318 125.286324 74.316254
473 -68.477791 10.734189 -26.804373 -120.497765 63.067318 125.286324 74.316254
[BN_L_Leg_Rear01]
470 -72.133743 -73.994843 -18.268616 146.400146 53.651188 -122.533401 104.939293
471 -72.133743 -73.994843 -18.268616 146.400146 53.651188 -122.533401 104.939293
472 -72.133743 -73.994843 -18.268616 146.400146 53.651188 -122.533401 104.939293
473 -72.133743 -73.994843 -18.268616 146.400146 53.651188 -122.533401 104.939293
[BN_MetalTop]
470 0.000008 13.737477 26.403606 92.110542 -18.896639 -97.445404 29.763546
471 0.000008 13.737477 26.403606 91.842484 -21.322966 -97.505951 29.763546
472 0.000008 13.737477 26.403606 91.700768 -22.627684 -97.543800 29.763546
473 0.000008 13.737477 26.403606 91.976822 -20.106323 -97.486809 29.763546
[BN_Neck]
470 0.000014 95.233284 10.002091 -89.999672 -65.297531 89.999657 95.757088
471 0.000014 95.233284 10.002091 -89.999672 -65.297531 89.999657 95.757088
472 0.000014 95.233284 10.002091 -89.999672 -65.297531 89.999657 95.757088
473 0.000014 95.233284 10.002091 -89.999672 -65.297531 89.999657 95.757088
[BN_R_Leg_Front01]
470 68.477768 10.734107 -26.804314 120.438026 63.085621 54.642651 74.316193
471 68.477768 10.734107 -26.804314 120.437851 63.085644 54.642460 74.316193
472 68.477768 10.734107 -26.804314 120.437698 63.085690 54.642284 74.316193
473 68.477768 10.734107 -26.804314 120.437492 63.085716 54.642086 74.316193
[BN_R_Leg_Rear01]
470 72.133751 -73.994873 -18.268644 -146.396271 53.648876 -57.465195 104.939331
471 72.133751 -73.994873 -18.268644 -146.396271 53.648876 -57.465195 104.939331
472 72.133751 -73.994873 -18.268644 -146.396271 53.648876 -57.465195 104.939331
473 72.133751 -73.994873 -18.268644 -146.396271 53.648876 -57.465195 104.939331
[BN_Sack]
470 -0.000000 -78.024918 33.657791 91.384636 -11.002192 -97.200874 84.974907
471 -0.000000 -78.024918 33.657791 91.384651 -11.002169 -97.200874 84.974907
472 -0.000000 -78.024918 33.657791 91.384651 -11.002139 -97.200882 84.974907
473 -0.000000 -78.024918 33.657791 91.384682 -11.002120 -97.200890 84.974907
[BN_L_Leg_Front02]
470 142.805023 -0.000015 -0.000104 -32.599762 31.792974 -165.377029 142.805023
471 142.805023 -0.000015 -0.000104 -32.157612 33.297302 -167.102036 142.805023
472 142.805023 -0.000015 -0.000104 -31.961700 33.453812 -166.317535 142.805023
473 142.805023 -0.000015 -0.000104 -31.762859 33.608082 -165.530914 142.805023
[BN_L_Leg_Front03]
470 124.143021 -0.000045 0.000007 0.353594 -0.328677 133.347626 124.143021
471 124.143021 -0.000045 0.000007 0.353798 -0.304598 137.479202 124.143021
472 124.143021 -0.000045 0.000007 0.353708 -0.310482 136.401810 124.143021
473 124.143021 -0.000045 0.000007 0.353729 -0.316368 135.324188 124.143021
[BN_L_Leg_Rear02]
470 139.939041 0.000075 -0.000022 -26.551294 43.130692 73.824883 139.939041
471 139.939041 0.000075 -0.000022 -14.361783 47.571423 85.958344 139.939041
472 139.939041 0.000075 -0.000022 -17.223118 46.615528 83.293877 139.939041
473 139.939041 0.000075 -0.000022 -19.968739 45.571228 80.746658 139.939041
[BN_L_Leg_Rear03]
470 142.839615 0.000179 -0.000060 0.000625 -0.002262 -120.902504 142.839615
471 142.839615 0.000179 -0.000060 0.000678 -0.002247 -123.601799 142.839615
472 142.839615 0.000179 -0.000060 0.000663 -0.002252 -122.800262 142.839615
473 142.839615 0.000179 -0.000060 0.000647 -0.002257 -121.998611 142.839615
[BN_Head]
470 57.062447 -0.000030 0.000000 11.286099 -5.927572 0.750297 57.062447
471 57.062447 -0.000030 0.000000 11.198573 -5.918574 4.463107 57.062447
472 57.062447 -0.000030 0.000000 11.300321 -5.731144 3.765750 57.062447
473 57.062447 -0.000030 0.000000 11.399744 -5.542473 3.068878 57.062447
[BN_Needle]
470 33.915279 69.677567 -0.000153 0.000003 0.000030 87.896805 77.493286
471 33.915279 69.677567 -0.000153 0.000003 0.000030 87.896805 77.493286
472 33.915279 69.677567 -0.000153 0.000003 0.000030 87.896805 77.493286
473 33.915279 69.677567 -0.000153 0.000003 0.000030 87.896805 77.493286
[BN_R_Leg_Front02]
470 142.804947 -0.000060 0.000060 23.945507 39.720627 146.097778 142.804947
471 142.804947 -0.000060 0.000060 22.859690 40.788464 146.601379 142.804947
472 142.804947 -0.000060 0.000060 23.070272 40.840599 145.910721 142.804947
473 142.804947 -0.000060 0.000060 23.280197 40.894653 145.219666 142.804947
[BN_R_Leg_Front03]
470 124.143005 -0.000060 -0.000156 -0.351380 -0.420228 -110.210152 124.143005
471 124.143005 -0.000060 -0.000156 -0.354392 -0.409253 -114.672455 124.143005
472 124.143005 -0.000060 -0.000156 -0.354315 -0.411079 -113.843803 124.143005
473 124.143005 -0.000060 -0.000156 -0.354264 -0.412906 -113.014999 124.143005
[BN_R_Leg_Rear02]
470 139.939011 -0.000149 0.000015 62.435028 12.098804 -53.087593 139.939011
471 139.939011 -0.000149 0.000015 57.168507 21.408308 -57.989338 139.939011
472 139.939011 -0.000149 0.000015 58.194347 19.301018 -55.251888 139.939011
473 139.939011 -0.000149 0.000015 59.122356 17.339275 -52.731159 139.939011
[BN_R_Leg_Rear03]
470 142.839417 0.000075 0.000119 0.002135 -0.000975 139.079865 142.839417
471 142.839417 0.000075 0.000119 0.002073 -0.001100 145.916580 142.839417
472 142.839417 0.000075 0.000119 0.002092 -0.001067 144.038544 142.839417
473 142.839417 0.000075 0.000119 0.002109 -0.001032 142.159424 142.839417
[BN_SackDef01]
470 249.782349 -3.760712 42.949493 -128.408218 -44.374973 -11.740845 253.475876
471 249.782349 -3.760712 42.949493 -128.408218 -44.374973 -11.740845 253.475876
472 249.782349 -3.760712 42.949493 -128.408218 -44.374973 -11.740845 253.475876
473 249.782349 -3.760712 42.949493 -128.408218 -44.374973 -11.740845 253.475876
[BN_SackDef02]
470 138.789856 -62.131638 45.674313 32.077126 -27.375721 -88.781525 158.773758
471 138.789856 -62.131638 45.674313 32.077126 -27.375721 -88.781525 158.773758
472 138.789856 -62.131638 45.674313 32.077126 -27.375721 -88.781525 158.773758
473 138.789856 -62.131638 45.674313 32.077126 -27.375721 -88.781525 158.773758
[BN_SackDef03]
470 249.782379 -3.760620 -42.949554 18.144459 44.375008 -11.740894 253.475922
471 249.782379 -3.760620 -42.949554 18.144459 44.375008 -11.740894 253.475922
472 249.782379 -3.760620 -42.949554 18.144459 44.375008 -11.740894 253.475922
473 249.782379 -3.760620 -42.949554 18.144459 44.375008 -11.740894 253.475922
[BN_SackDef04]
470 138.789932 -62.131496 -45.674435 146.059982 27.375723 -88.781555 158.773819
471 138.789932 -62.131496 -45.674435 146.059982 27.375723 -88.781555 158.773819
472 138.789932 -62.131496 -45.674435 146.059982 27.375723 -88.781555 158.773819
473 138.789932 -62.131496 -45.674435 146.059982 27.375723 -88.781555 158.773819
[BN_SackDef05]
470 118.790192 46.167221 -63.831329 0.155741 51.314110 90.605110 142.537582
471 118.790192 46.167221 -63.831329 0.155741 51.314110 90.605110 142.537582
472 118.790192 46.167221 -63.831329 0.155741 51.314110 90.605110 142.537582
473 118.790192 46.167221 -63.831329 0.155741 51.314110 90.605110 142.537582
[BN_SackDef06]
470 118.790260 46.167267 63.831173 152.058487 -51.314072 90.605019 142.537582
471 118.790260 46.167267 63.831173 152.058487 -51.314072 90.605019 142.537582
472 118.790260 46.167267 63.831173 152.058487 -51.314072 90.605019 142.537582
473 118.790260 46.167267 63.831173 152.058487 -51.314072 90.605019 142.537582
